<svg xmlns="http://www.w3.org/2000/svg" viewBox="0 0 1200 750" role="img" aria-labelledby="title desc">
  <title id="title">Plant disease detection pipeline</title>
  <desc id="desc">Computer vision pipeline from leaf image and mask to feature extraction, CNN layers, and disease classification confidence.</desc>
  <defs>
    <filter id="shadow" x="-20%" y="-20%" width="140%" height="140%">
      <feDropShadow dx="0" dy="10" stdDeviation="14" flood-color="#123225" flood-opacity="0.14"/>
    </filter>
    <marker id="arrow" markerWidth="12" markerHeight="12" refX="10" refY="6" orient="auto" markerUnits="strokeWidth">
      <path d="M2 2 L10 6 L2 10 Z" fill="#25735a"/>
    </marker>
    <style>
      .bg{fill:#f7fbf8}
      .panel{fill:#fff;stroke:#d7e6dd;stroke-width:2}
      .title{font:700 48px Poppins,Arial,sans-serif;fill:#123225}
      .sub{font:500 20px Poppins,Arial,sans-serif;fill:#63776b}
      .label{font:700 22px Poppins,Arial,sans-serif;fill:#123225}
      .small{font:500 15px Poppins,Arial,sans-serif;fill:#63776b}
      .metric{font:700 32px Poppins,Arial,sans-serif;fill:#123225}
      .metric-label{font:700 13px Poppins,Arial,sans-serif;fill:#25735a;text-transform:uppercase}
      .wire{fill:none;stroke:#25735a;stroke-width:5;marker-end:url(#arrow)}
    </style>
  </defs>
  <rect class="bg" width="1200" height="750"/>
  <rect x="36" y="34" width="1128" height="682" rx="8" class="panel"/>

  <text x="82" y="98" class="title">Plant Disease Detection</text>
  <text x="84" y="132" class="sub">Leaf masking, handcrafted features, and a 5-layer CNN for robust classification</text>

  <g transform="translate(76 198)" filter="url(#shadow)">
    <rect x="0" y="0" width="220" height="240" rx="8" fill="#ecf8ef" stroke="#72b486" stroke-width="3"/>
    <text x="28" y="48" class="label">Input leaf</text>
    <path d="M116 74 C42 108 32 196 112 214 C196 202 202 110 116 74 Z" fill="#3f9f5f"/>
    <path d="M116 84 C116 124 116 162 116 208" stroke="#1e6b43" stroke-width="5" fill="none"/>
    <path d="M116 126 C92 114 74 104 56 96" stroke="#1e6b43" stroke-width="4" fill="none"/>
    <path d="M116 154 C148 138 170 124 188 112" stroke="#1e6b43" stroke-width="4" fill="none"/>
    <circle cx="154" cy="146" r="14" fill="#b95e46"/>
    <circle cx="100" cy="170" r="10" fill="#b95e46"/>
  </g>
  <path d="M312 318 L372 318" class="wire"/>
  <g transform="translate(388 198)" filter="url(#shadow)">
    <rect x="0" y="0" width="220" height="240" rx="8" fill="#f8fafc" stroke="#d2dbe8" stroke-width="3"/>
    <text x="28" y="48" class="label">Mask + features</text>
    <path d="M112 78 C44 112 44 194 112 214 C190 190 190 112 112 78 Z" fill="#12233f"/>
    <path d="M112 92 C112 134 112 170 112 208" stroke="#ffffff" stroke-width="4" fill="none"/>
    <circle cx="68" cy="104" r="8" fill="#4a76ee"/>
    <circle cx="152" cy="130" r="8" fill="#f2a516"/>
    <circle cx="92" cy="174" r="8" fill="#25a36f"/>
    <text x="38" y="224" class="small">shape, color, texture</text>
  </g>
  <path d="M624 318 L684 318" class="wire"/>
  <g transform="translate(700 198)" filter="url(#shadow)">
    <rect x="0" y="0" width="220" height="240" rx="8" fill="#eef7ff" stroke="#4a76ee" stroke-width="3"/>
    <text x="28" y="48" class="label">5-layer CNN</text>
    <g transform="translate(40 86)">
      <rect x="0" y="24" width="28" height="108" rx="4" fill="#91c4ff"/>
      <rect x="42" y="14" width="28" height="128" rx="4" fill="#4a76ee"/>
      <rect x="84" y="32" width="28" height="92" rx="4" fill="#91c4ff"/>
      <rect x="126" y="46" width="28" height="64" rx="4" fill="#234db0"/>
    </g>
    <text x="40" y="224" class="small">batch norm + dropout</text>
  </g>
  <path d="M936 318 L996 318" class="wire"/>
  <g transform="translate(1012 198)" filter="url(#shadow)">
    <rect x="0" y="0" width="108" height="240" rx="8" fill="#fff7ed" stroke="#f08c00" stroke-width="3"/>
    <text x="18" y="48" class="label">Class</text>
    <rect x="22" y="82" width="64" height="118" rx="8" fill="#ffd8a8"/>
    <rect x="22" y="126" width="64" height="74" rx="8" fill="#f08c00"/>
    <text x="27" y="224" class="small">95%</text>
  </g>

  <g transform="translate(88 524)">
    <rect x="0" y="0" width="300" height="92" rx="8" fill="#ecf8ef" stroke="#72b486"/>
    <text x="24" y="42" class="metric">87k images</text>
    <text x="24" y="66" class="metric-label">training data</text>
  </g>
  <g transform="translate(450 524)">
    <rect x="0" y="0" width="300" height="92" rx="8" fill="#eef2ff" stroke="#4a76ee"/>
    <text x="24" y="42" class="metric">38 labels</text>
    <text x="24" y="66" class="metric-label">crop and disease classes</text>
  </g>
  <g transform="translate(812 524)">
    <rect x="0" y="0" width="300" height="92" rx="8" fill="#fff7ed" stroke="#f08c00"/>
    <text x="24" y="42" class="metric">95% accuracy</text>
    <text x="24" y="66" class="metric-label">test result</text>
  </g>
</svg>
