<svg xmlns="http://www.w3.org/2000/svg" viewBox="0 0 1200 750" role="img" aria-labelledby="title desc">
  <title id="title">Transparent rectenna array for space RF harvesting</title>
  <desc id="desc">Transparent fused-quartz rectenna array harvesting 2.45 GHz RF energy and converting it to DC output through a rectifier circuit.</desc>
  <defs>
    <filter id="shadow" x="-20%" y="-20%" width="140%" height="140%">
      <feDropShadow dx="0" dy="10" stdDeviation="14" flood-color="#10233a" flood-opacity="0.13"/>
    </filter>
    <marker id="arrow" markerWidth="12" markerHeight="12" refX="10" refY="6" orient="auto" markerUnits="strokeWidth">
      <path d="M2 2 L10 6 L2 10 Z" fill="#2f5ed7"/>
    </marker>
    <style>
      .bg{fill:#f7fbff}
      .panel{fill:#fff;stroke:#d9e3ee;stroke-width:2}
      .title{font:700 46px Poppins,Arial,sans-serif;fill:#112033}
      .sub{font:500 20px Poppins,Arial,sans-serif;fill:#607086}
      .label{font:700 21px Poppins,Arial,sans-serif;fill:#112033}
      .small{font:500 15px Poppins,Arial,sans-serif;fill:#607086}
      .metric{font:700 32px Poppins,Arial,sans-serif;fill:#112033}
      .metric-label{font:700 13px Poppins,Arial,sans-serif;fill:#2f5ed7;text-transform:uppercase}
      .wire{fill:none;stroke:#2f5ed7;stroke-width:5;marker-end:url(#arrow)}
      .wave{fill:none;stroke:#4a76ee;stroke-width:5;stroke-linecap:round}
      .glass{fill:#eaf7ff;fill-opacity:.62;stroke:#67b7dc;stroke-width:3}
      .trace{fill:none;stroke:#f08c00;stroke-width:9;stroke-linecap:round;stroke-linejoin:round}
    </style>
  </defs>
  <rect class="bg" width="1200" height="750"/>
  <rect x="36" y="34" width="1128" height="682" rx="8" class="panel"/>

  <text x="84" y="132" class="sub">Fused-quartz RF energy harvesting at 2.45 GHz for space-compatible surfaces</text>

  <g transform="translate(82 184)">
    <path class="wave" d="M18 42 C64 10 112 10 158 42"/>
    <path class="wave" d="M18 96 C64 64 112 64 158 96"/>
    <path class="wave" d="M18 150 C64 118 112 118 158 150"/>
    <text x="22" y="205" class="label">2.45 GHz RF</text>
    <text x="22" y="232" class="small">ambient or directed illumination</text>
  </g>

  <path d="M274 292 L342 292" class="wire"/>

  <g transform="translate(360 178)" filter="url(#shadow)">
    <rect x="0" y="0" width="394" height="310" rx="8" class="glass"/>
    <text x="28" y="44" class="label">Transparent fused-quartz panel</text>
    <text x="28" y="72" class="small">six low-coupling strip-loop rectenna elements</text>
    <g transform="translate(52 108)">
      <g transform="translate(0 0)">
        <rect x="0" y="0" width="82" height="62" rx="7" fill="#ffffff" fill-opacity=".78" stroke="#b7d7e8"/>
        <path class="trace" d="M18 46 V16 H64 V46 H34"/>
      </g>
      <g transform="translate(128 0)">
        <rect x="0" y="0" width="82" height="62" rx="7" fill="#ffffff" fill-opacity=".78" stroke="#b7d7e8"/>
        <path class="trace" d="M18 46 V16 H64 V46 H34"/>
      </g>
      <g transform="translate(256 0)">
        <rect x="0" y="0" width="82" height="62" rx="7" fill="#ffffff" fill-opacity=".78" stroke="#b7d7e8"/>
        <path class="trace" d="M18 46 V16 H64 V46 H34"/>
      </g>
      <g transform="translate(0 96)">
        <rect x="0" y="0" width="82" height="62" rx="7" fill="#ffffff" fill-opacity=".78" stroke="#b7d7e8"/>
        <path class="trace" d="M18 46 V16 H64 V46 H34"/>
      </g>
      <g transform="translate(128 96)">
        <rect x="0" y="0" width="82" height="62" rx="7" fill="#ffffff" fill-opacity=".78" stroke="#b7d7e8"/>
        <path class="trace" d="M18 46 V16 H64 V46 H34"/>
      </g>
      <g transform="translate(256 96)">
        <rect x="0" y="0" width="82" height="62" rx="7" fill="#ffffff" fill-opacity=".78" stroke="#b7d7e8"/>
        <path class="trace" d="M18 46 V16 H64 V46 H34"/>
      </g>
    </g>
    <g transform="translate(42 246)">
      <rect x="0" y="0" width="98" height="40" rx="6" fill="#eef2ff" stroke="#4a76ee"/>
      <text x="18" y="27" class="small">S7P array</text>
      <rect x="118" y="0" width="112" height="40" rx="6" fill="#ecfdf5" stroke="#25a36f"/>
      <text x="134" y="27" class="small">-31 dB coupling</text>
    </g>
  </g>

  <path d="M774 332 L844 332" class="wire"/>

  <g transform="translate(862 198)" filter="url(#shadow)">
    <rect x="0" y="0" width="248" height="252" rx="8" fill="#ffffff" stroke="#d9e3ee" stroke-width="2"/>
    <text x="26" y="44" class="label">ADS rectifier</text>
    <text x="26" y="72" class="small">SMS7630 voltage doubler</text>
    <g transform="translate(34 104)" fill="none" stroke-linecap="round" stroke-linejoin="round">
      <path d="M0 28 H42 L68 6 L94 50 L120 28 H178" stroke="#2f5ed7" stroke-width="6"/>
      <path d="M28 88 H70 M70 66 V110 M98 66 V110 M98 88 H148" stroke="#f08c00" stroke-width="6"/>
      <circle cx="42" cy="28" r="7" fill="#2f5ed7"/>
      <circle cx="120" cy="28" r="7" fill="#2f5ed7"/>
    </g>
    <rect x="34" y="188" width="178" height="42" rx="6" fill="#fff7ed" stroke="#f08c00"/>
    <text x="58" y="215" class="label">DC output</text>
  </g>

  <g transform="translate(96 548)">
    <rect x="0" y="0" width="300" height="88" rx="8" fill="#eef2ff" stroke="#4a76ee"/>
    <text x="24" y="40" class="metric">2.45 GHz</text>
    <text x="24" y="64" class="metric-label">ISM-band design</text>
  </g>
  <g transform="translate(450 548)">
    <rect x="0" y="0" width="300" height="88" rx="8" fill="#ecfdf5" stroke="#25a36f"/>
    <text x="24" y="40" class="metric">4.51 V</text>
    <text x="24" y="64" class="metric-label">six-element array output</text>
  </g>
  <g transform="translate(804 548)">
    <rect x="0" y="0" width="300" height="88" rx="8" fill="#fff7ed" stroke="#f08c00"/>
    <text x="24" y="40" class="metric">32%</text>
    <text x="24" y="64" class="metric-label">peak RF-to-DC efficiency</text>
  </g>
</svg>
