<svg xmlns="http://www.w3.org/2000/svg" viewBox="0 0 1200 750" role="img" aria-labelledby="title desc">
  <title id="title">Database management system architecture</title>
  <desc id="desc">C++ DBMS pipeline from CLI input through tokenizer, command routing, execution, block storage, and table output.</desc>
  <defs>
    <filter id="shadow" x="-20%" y="-20%" width="140%" height="140%">
      <feDropShadow dx="0" dy="10" stdDeviation="14" flood-color="#12233f" flood-opacity="0.13"/>
    </filter>
    <marker id="arrow" markerWidth="12" markerHeight="12" refX="10" refY="6" orient="auto" markerUnits="strokeWidth">
      <path d="M2 2 L10 6 L2 10 Z" fill="#475569"/>
    </marker>
    <style>
      .bg{fill:#f7fafb}
      .panel{fill:#fff;stroke:#d9e3ee;stroke-width:2}
      .title{font:700 48px Poppins,Arial,sans-serif;fill:#0e1c31}
      .sub{font:500 20px Poppins,Arial,sans-serif;fill:#607086}
      .label{font:700 23px Poppins,Arial,sans-serif;fill:#0e1c31}
      .small{font:500 15px Poppins,Arial,sans-serif;fill:#607086}
      .tiny{font:600 13px Poppins,Arial,sans-serif;fill:#607086}
      .metric{font:700 31px Poppins,Arial,sans-serif;fill:#0e1c31}
      .wire{fill:none;stroke:#475569;stroke-width:5;marker-end:url(#arrow)}
    </style>
  </defs>
  <rect class="bg" width="1200" height="750"/>
  <rect x="36" y="34" width="1128" height="682" rx="8" class="panel"/>

  <text x="82" y="98" class="title">C++ DBMS Architecture</text>
  <text x="84" y="132" class="sub">Clean command pipeline with parser, router, storage, and presentation boundaries</text>

  <g transform="translate(76 196)" filter="url(#shadow)">
    <rect x="0" y="0" width="160" height="122" rx="8" fill="#eaf2ff" stroke="#4a76ee" stroke-width="3"/>
    <text x="34" y="48" class="label">Input</text>
    <text x="28" y="78" class="small">CLI command</text>
  </g>
  <path d="M246 257 L302 257" class="wire"/>
  <g transform="translate(318 196)" filter="url(#shadow)">
    <rect x="0" y="0" width="178" height="122" rx="8" fill="#eaf8f1" stroke="#25a36f" stroke-width="3"/>
    <text x="33" y="48" class="label">Tokenizer</text>
    <text x="36" y="78" class="small">keywords + scan</text>
  </g>
  <path d="M506 257 L562 257" class="wire"/>
  <g transform="translate(578 196)" filter="url(#shadow)">
    <rect x="0" y="0" width="184" height="122" rx="8" fill="#fff5df" stroke="#f2a516" stroke-width="3"/>
    <text x="36" y="48" class="label">Router</text>
    <text x="34" y="78" class="small">command chain</text>
  </g>
  <path d="M772 257 L828 257" class="wire"/>
  <g transform="translate(844 196)" filter="url(#shadow)">
    <rect x="0" y="0" width="174" height="122" rx="8" fill="#f2edff" stroke="#7950f2" stroke-width="3"/>
    <text x="31" y="48" class="label">Execute</text>
    <text x="36" y="78" class="small">statements</text>
  </g>
  <path d="M1028 257 L1080 257" class="wire"/>
  <circle cx="1114" cy="257" r="42" fill="#eef2ff" stroke="#4a76ee" stroke-width="3"/>
  <text x="1091" y="263" class="label">View</text>

  <g transform="translate(84 406)">
    <rect x="0" y="0" width="304" height="170" rx="8" fill="#f8fafc" stroke="#d2dbe8"/>
    <text x="24" y="42" class="metric">Layered core</text>
    <text x="24" y="78" class="small">AppController routes work without parsing or storage details</text>
    <path d="M24 112 H254" stroke="#d8e2ee" stroke-width="2"/>
    <text x="24" y="142" class="tiny">controller</text>
    <text x="120" y="142" class="tiny">parser</text>
    <text x="210" y="142" class="tiny">views</text>
  </g>

  <g transform="translate(450 406)">
    <rect x="0" y="0" width="300" height="170" rx="8" fill="#f8fafc" stroke="#d2dbe8"/>
    <text x="24" y="42" class="metric">Block storage</text>
    <text x="24" y="78" class="small">small I/O contract for future buffer pools and logging</text>
    <g transform="translate(24 104)" fill="#eaf2ff" stroke="#4a76ee">
      <rect x="0" y="0" width="44" height="44" rx="4"/>
      <rect x="54" y="0" width="44" height="44" rx="4"/>
      <rect x="108" y="0" width="44" height="44" rx="4"/>
      <rect x="162" y="0" width="44" height="44" rx="4"/>
      <rect x="216" y="0" width="44" height="44" rx="4"/>
    </g>
  </g>

  <g transform="translate(812 406)">
    <rect x="0" y="0" width="304" height="170" rx="8" fill="#f8fafc" stroke="#d2dbe8"/>
    <text x="24" y="42" class="metric">Tabular output</text>
    <text x="24" y="78" class="small">presentation stays outside engine internals</text>
    <g transform="translate(24 106)">
      <rect x="0" y="0" width="246" height="42" rx="4" fill="#0e1c31"/>
      <rect x="0" y="44" width="246" height="24" fill="#ffffff" stroke="#d2dbe8"/>
      <line x1="82" y1="0" x2="82" y2="68" stroke="#d2dbe8"/>
      <line x1="164" y1="0" x2="164" y2="68" stroke="#d2dbe8"/>
      <text x="19" y="27" class="tiny" fill="#fff">key</text>
      <text x="102" y="27" class="tiny" fill="#fff">type</text>
      <text x="184" y="27" class="tiny" fill="#fff">status</text>
    </g>
  </g>
</svg>
